<svg xmlns="http://www.w3.org/2000/svg" viewBox="0 0 167.1 167.1"><g id="Layer_1" data-name="Layer 1"><path d="M0,36.27l.67,0H45.17c0,.28,0,.51,0,.75v88.08c0,.24,0,.49,0,.73H0Z"/><path d="M121.89,125.85c0-.34,0-.67,0-1V36.29h44.61l.6,0v89.58Z"/><path d="M81.66,97.73l-15.39,2.46c.23-.83.44-1.55.62-2.28.3-1.18.56-2.38.85-3.57s.17-1.26-.7-1.9c-1.59-1.2-3.15-2.46-4.73-3.68L58,85.46,53,81.61c-.14-.1-.26-.23-.47-.41L58,78.57c-1.14-3.55-2.27-7.1-3.42-10.74L64.6,70.18c.16-2.16.32-4.19.48-6.34l8,7.34c-.78-4.93-1.53-9.7-2.3-14.58,1.85.67,3.58,1.24,5.27,1.9s1.65.58,2.52-.81c1.08-1.75,2.26-3.45,3.38-5.18.48-.74.93-1.51,1.45-2.34C84.33,51.5,85.16,52.73,86,54s1.49,2.31,2.23,3.47c.07.11.15.22.22.34.78,1.38.77,1.36,2.27.81,1.75-.66,3.51-1.28,5.45-2-.79,4.89-1.55,9.65-2.33,14.6l8.1-7.38c.15,2.14.28,4.16.43,6.37l10.09-2.35c-1.15,3.6-2.27,7.15-3.42,10.73l5.4,2.65-1.58,1.25-2,1.58-2.32,1.81-6.4,5c-.9.71-1.81,1.41-2.73,2.11a.64.64,0,0,0-.29.82c.55,2.09,1,4.19,1.58,6.38L85.29,97.73V112H81.65C81.66,107.2,81.66,102.48,81.66,97.73Z"/></g></svg>