<svg xmlns="http://www.w3.org/2000/svg" viewBox="0 0 167.1 167.1"><g id="Layer_1" data-name="Layer 1"><path d="M81.68,40a2.7,2.7,0,0,1,3.75,0l39.48,37.4h15L85.53,26c-.08-.08-.17-.13-.25-.2V19.94H106V4H85.28V0H81.51V25.88a1.58,1.58,0,0,0-.15.12L27.16,77.44h15Z"/><path d="M46,88.56H20.25a7.8,7.8,0,0,0-6.32,3.31l-5,7H46Z"/><path d="M121.07,98.86h37.14l-5-7a7.79,7.79,0,0,0-6.32-3.31H121.07Z"/><path d="M113.53,80.12l-30-30.26-30,30.26v27.16H15.9V167.1H151.2V107.28H113.53ZM82.35,140.59a5.64,5.64,0,0,1-2.18,4.61,9.53,9.53,0,0,1-5.81,1.93v3.41H69.42v-3.41a8.25,8.25,0,0,1-6.08-2.29,8.48,8.48,0,0,1-2.2-6.17h4.94a4.24,4.24,0,0,0,1,3,3.41,3.41,0,0,0,2.66,1.07h4a4.61,4.61,0,0,0,2.59-.67,2.07,2.07,0,0,0,1-1.8V139c0-1.18-.87-1.92-2.61-2.21L68,135.65a9.49,9.49,0,0,1-5-2.09,5.07,5.07,0,0,1-1.69-3.94v-2a5.64,5.64,0,0,1,1-3.3A6.7,6.7,0,0,1,65.21,122a10.26,10.26,0,0,1,4.21-.87v-3.42h4.94v3.42a7.92,7.92,0,0,1,5.47,2.28,7.58,7.58,0,0,1,2,5.52H76.94a3.56,3.56,0,0,0-.83-2.45,2.87,2.87,0,0,0-2.22-.92h-4.1a4.11,4.11,0,0,0-2.45.65,2,2,0,0,0-.93,1.74v1c0,1.22.84,2,2.51,2.26l6.64,1.16a10.58,10.58,0,0,1,5,2.05,4.74,4.74,0,0,1,1.74,3.79Zm23.79,0A5.67,5.67,0,0,1,104,145.2a9.53,9.53,0,0,1-5.81,1.93v3.41H93.21v-3.41a8.24,8.24,0,0,1-6.08-2.29,8.44,8.44,0,0,1-2.2-6.17h4.94a4.29,4.29,0,0,0,1,3,3.41,3.41,0,0,0,2.67,1.07h4a4.64,4.64,0,0,0,2.6-.67,2.07,2.07,0,0,0,1-1.8V139c0-1.18-.87-1.92-2.62-2.21l-6.68-1.13a9.52,9.52,0,0,1-5-2.09,5.1,5.1,0,0,1-1.68-3.94v-2a5.71,5.71,0,0,1,1-3.3A6.79,6.79,0,0,1,89,122a10.23,10.23,0,0,1,4.21-.87v-3.42h4.94v3.42a7.92,7.92,0,0,1,5.47,2.28,7.62,7.62,0,0,1,2,5.52h-4.94a3.52,3.52,0,0,0-.84-2.45,2.84,2.84,0,0,0-2.21-.92H93.57a4.15,4.15,0,0,0-2.45.65A2.05,2.05,0,0,0,90.2,128v1c0,1.22.83,2,2.5,2.26l6.65,1.16a10.67,10.67,0,0,1,5.05,2.05,4.74,4.74,0,0,1,1.74,3.79Z"/></g></svg>