<svg xmlns="http://www.w3.org/2000/svg" viewBox="0 0 167.1 167.1"><g id="Layer_1" data-name="Layer 1"><g id="I24Rlv.tif"><path d="M167.08,100.28v8.47a68,68,0,0,1-4.92,19.48,2.6,2.6,0,0,0-.14,1.6q2.52,12.43,5.06,24.87c0,2.07,0,4.13,0,6.19,0,.57-.1.69-.67.67-2.06,0-4.13,0-6.19,0q-12.57-2.55-25.13-5.07a2.86,2.86,0,0,0-1.75.17,62.54,62.54,0,0,1-18.1,4.9H104.18a5.72,5.72,0,0,0-.79-.2A57.16,57.16,0,1,1,118.62,48.08c21.8,3.45,36.59,16.2,44.89,36.54A59.57,59.57,0,0,1,167.08,100.28Z"/><path d="M59.84,5.54c19.88.86,36.7,10.53,47.88,29.71,1.47,2.52,1.36,2.69-1.53,2.81-30.55,1.37-57,24.68-62.13,56a66.7,66.7,0,0,0,.3,22.68c.3,1.7.17,1.8-1.52,1.39a47.72,47.72,0,0,1-8-2.78,5.45,5.45,0,0,0-3.47-.38c-8.14,1.64-16.29,3.22-24.44,4.82-4.76.94-7.6-1.93-6.65-6.71,1.59-8,3.15-16,4.78-23.94a5.8,5.8,0,0,0-.37-3.63A56.64,56.64,0,0,1,18,21.3C29.11,10.86,42.41,5.74,59.84,5.54Z"/></g></g></svg>