<svg xmlns="http://www.w3.org/2000/svg" viewBox="0 0 167.1 167.1"><defs><style>.cls-1{stroke:#fff;stroke-miterlimit:10;stroke-width:3px;}.cls-2{font-size:26.27px;fill:#67ff9a;font-family:Athiti-Bold, Athiti;font-weight:700;}</style></defs><g id="Layer_1" data-name="Layer 1"><path class="cls-1" d="M143.14,165.59h8.34c2.1,0,4.21-.05,6.31,0h2a7,7,0,0,0,6.41-4.45v-3.51c-1.56-3.35-4.25-4.26-7.81-4.26q-63.51.12-127,.06a16.72,16.72,0,0,1-11.13-3.63,15.24,15.24,0,0,1-4.54-16.65,14.81,14.81,0,0,1,13.7-10q29.91-.08,59.84,0,34.64,0,69.27,0c3.56,0,6.21-1.12,7.7-4.48v-3.19c-1.26-3.33-3.69-4.56-7.21-4.56Q94.33,111,29.7,111A27.11,27.11,0,0,0,3,134.08a27.57,27.57,0,0,0,24.33,31.49Z"/><path class="cls-1" d="M32,126.77a11.74,11.74,0,1,0,0,23.48h131.1V126.77Z"/><path class="cls-1" d="M25.85,56.39H17.46c-2.12,0-4.23,0-6.35,0h-2a7,7,0,0,0-6.44,4.45v3.51c1.56,3.35,4.27,4.26,7.85,4.26q63.86-.12,127.7-.06a16.88,16.88,0,0,1,11.19,3.63A15.2,15.2,0,0,1,154,88.83a14.89,14.89,0,0,1-13.77,10q-30.07.08-60.16,0-34.82,0-69.63,0c-3.58,0-6.25,1.13-7.74,4.49v3.19c1.27,3.33,3.71,4.56,7.25,4.56q65-.09,130,0a27.21,27.21,0,0,0,26.85-23.1,27.6,27.6,0,0,0-24.46-31.49"/><path class="cls-1" d="M137.54,95.21a11.74,11.74,0,1,0,0-23.48H5.74V95.21Z"/><path class="cls-1" d="M141.26,56.17h8.39c2.11,0,4.23-.05,6.34,0h2a7,7,0,0,0,6.44-4.45V48.21c-1.56-3.35-4.27-4.26-7.84-4.25q-63.86.1-127.71,0a16.87,16.87,0,0,1-11.19-3.62,15.21,15.21,0,0,1-4.56-16.66,14.91,14.91,0,0,1,13.77-10c20.05,0,40.11,0,60.16,0,23.21,0,46.42,0,69.63,0,3.58,0,6.25-1.12,7.74-4.48V6.07c-1.27-3.33-3.71-4.56-7.25-4.55q-65,.08-130,0A27.22,27.22,0,0,0,.37,24.66,27.6,27.6,0,0,0,24.84,56.15Z"/><path class="cls-1" d="M29.56,17.35a11.75,11.75,0,1,0,0,23.49h131.8V17.35Z"/><text class="cls-2" transform="translate(-560.62 -9.01)"><tspan xml:space="preserve">      EP IEP		ติวเตอร์	เทป สถาบัน		ไม่เรียน</tspan></text></g></svg>