<svg xmlns="http://www.w3.org/2000/svg" viewBox="0 0 167.1 167.1"><g id="Layer_1" data-name="Layer 1"><path d="M167.1,56,79.57,24.22,0,56,79.57,95.83ZM70.43,71.78A9.25,9.25,0,0,1,68,65h5.42a4.68,4.68,0,0,0,1.06,3.25,3.74,3.74,0,0,0,2.93,1.17h4.42a5,5,0,0,0,2.85-.74,2.27,2.27,0,0,0,1.1-2V65.37c0-1.31-1-2.12-2.87-2.44L75.59,61.7a10.57,10.57,0,0,1-5.44-2.29,5.6,5.6,0,0,1-1.85-4.33V52.85a6.24,6.24,0,0,1,1.09-3.63,7.39,7.39,0,0,1,3.09-2.51,11.47,11.47,0,0,1,4.63-1V42h5.42v3.75a8.66,8.66,0,0,1,6,2.51,8.32,8.32,0,0,1,2.25,6.06H85.36a3.88,3.88,0,0,0-.92-2.69,3.11,3.11,0,0,0-2.43-1h-4.5a4.54,4.54,0,0,0-2.69.72,2.24,2.24,0,0,0-1,1.92v1.07c0,1.33.92,2.15,2.75,2.47l7.3,1.28a11.68,11.68,0,0,1,5.54,2.25,5.23,5.23,0,0,1,1.91,4.17v2.63a6.24,6.24,0,0,1-2.39,5.06,10.52,10.52,0,0,1-6.38,2.12V78H77.11V74.3A9,9,0,0,1,70.43,71.78Z"/><path d="M63.66,98.49,51.72,92.26V92.2L39.79,85.91V86l-8-4.15v-.15l-11.94-6.3v43.77l10,5.32v.1l33.79,16.45A62.68,62.68,0,0,0,108,137.63l39.19-18.44V75.42L79.57,106.88Z"/></g></svg>