<svg xmlns="http://www.w3.org/2000/svg" viewBox="0 0 167.1 167.1"><g id="Layer_1" data-name="Layer 1"><path d="M6.09,80.54H40.38a0,0,0,0,1,0,0V91.8a0,0,0,0,1,0,0H1.59a0,0,0,0,1,0,0V85A4.5,4.5,0,0,1,6.09,80.54Z"/><path d="M126.72,80.54H161a4.5,4.5,0,0,1,4.5,4.5V91.8a0,0,0,0,1,0,0H126.72a0,0,0,0,1,0,0V80.54A0,0,0,0,1,126.72,80.54Z"/><path d="M49.39,31.52H119a4,4,0,0,1,4,4v6.23a0,0,0,0,1,0,0H45.39a0,0,0,0,1,0,0V35.52A4,4,0,0,1,49.39,31.52Z"/><path d="M119.21,100.56V50.51H49.14v50.05H6.6v66.32H161.76V100.56ZM69.74,137.81a6.28,6.28,0,0,1-2.4,5.09A10.59,10.59,0,0,1,60.93,145v3.76H55.49V145a9.09,9.09,0,0,1-6.71-2.52,9.33,9.33,0,0,1-2.42-6.81H51.8A4.74,4.74,0,0,0,52.86,139a3.76,3.76,0,0,0,3,1.18h4.44a5,5,0,0,0,2.87-.74,2.28,2.28,0,0,0,1.1-2v-1.36c0-1.31-1-2.12-2.89-2.44L54,132.36a10.45,10.45,0,0,1-5.46-2.3,5.61,5.61,0,0,1-1.86-4.34v-2.24a6.24,6.24,0,0,1,1.1-3.65,7.36,7.36,0,0,1,3.1-2.52,11.24,11.24,0,0,1,4.65-1v-3.77h5.44v3.77a8.7,8.7,0,0,1,6,2.52A8.35,8.35,0,0,1,69.22,125H63.77a3.87,3.87,0,0,0-.92-2.71,3.11,3.11,0,0,0-2.44-1H55.89a4.62,4.62,0,0,0-2.71.72,2.24,2.24,0,0,0-1,1.93V125c0,1.33.92,2.16,2.77,2.48l7.32,1.28A11.72,11.72,0,0,1,67.82,131a5.23,5.23,0,0,1,1.92,4.19Zm26.23,0a6.28,6.28,0,0,1-2.4,5.09A10.61,10.61,0,0,1,87.16,145v3.76H81.71V145A9.08,9.08,0,0,1,75,142.5a9.33,9.33,0,0,1-2.43-6.81H78A4.69,4.69,0,0,0,79.09,139,3.75,3.75,0,0,0,82,140.13h4.45a5,5,0,0,0,2.86-.74,2.26,2.26,0,0,0,1.1-2v-1.36c0-1.31-1-2.12-2.88-2.44l-7.37-1.25a10.45,10.45,0,0,1-5.46-2.3,5.58,5.58,0,0,1-1.86-4.34v-2.24a6.24,6.24,0,0,1,1.1-3.65,7.3,7.3,0,0,1,3.1-2.52,11.19,11.19,0,0,1,4.64-1v-3.77h5.45v3.77a8.7,8.7,0,0,1,6,2.52A8.39,8.39,0,0,1,95.45,125H90a3.87,3.87,0,0,0-.92-2.71,3.13,3.13,0,0,0-2.44-1H82.11a4.59,4.59,0,0,0-2.7.72,2.24,2.24,0,0,0-1,1.93V125c0,1.33.92,2.16,2.76,2.48l7.33,1.28A11.72,11.72,0,0,1,94.05,131,5.23,5.23,0,0,1,96,135.17Zm26.23,0a6.26,6.26,0,0,1-2.41,5.09,10.56,10.56,0,0,1-6.4,2.12v3.76h-5.45V145a9.11,9.11,0,0,1-6.71-2.52,9.37,9.37,0,0,1-2.42-6.81h5.45a4.69,4.69,0,0,0,1.06,3.26,3.75,3.75,0,0,0,2.94,1.18h4.45a5,5,0,0,0,2.86-.74,2.28,2.28,0,0,0,1.1-2v-1.36c0-1.31-1-2.12-2.88-2.44l-7.37-1.25a10.52,10.52,0,0,1-5.47-2.3,5.61,5.61,0,0,1-1.86-4.34v-2.24a6.31,6.31,0,0,1,1.1-3.65,7.4,7.4,0,0,1,3.11-2.52,11.19,11.19,0,0,1,4.64-1v-3.77h5.45v3.77a8.66,8.66,0,0,1,6,2.52,8.36,8.36,0,0,1,2.27,6.09h-5.45a3.92,3.92,0,0,0-.92-2.71,3.13,3.13,0,0,0-2.44-1h-4.53a4.59,4.59,0,0,0-2.7.72,2.24,2.24,0,0,0-1,1.93V125c0,1.33.92,2.16,2.76,2.48l7.33,1.28a11.68,11.68,0,0,1,5.56,2.26,5.21,5.21,0,0,1,1.93,4.19Z"/><polyline points="86.42 32.47 86.42 0.22 82.27 0.22 82.27 32.47"/><rect x="86.42" y="4.62" width="22.85" height="17.59"/></g></svg>