<svg xmlns="http://www.w3.org/2000/svg" viewBox="0 0 167.1 167.1"><defs><style>.cls-1{fill:#f2f2f2;}.cls-2{fill:#fff;}</style></defs><g id="Layer_1" data-name="Layer 1"><path class="cls-1" d="M0,86.28l.88,0H166.22c.29,0,.58,0,.87,0v42.44H0Q0,107.49,0,86.28Z"/><path class="cls-2" d="M167.08,39l-.94,0H.94L0,39c0-.22-.09-.52.33-.4a1.22,1.22,0,0,0,.27,0H166.47C166.74,38.63,167.19,38.43,167.08,39Z"/><path d="M166.14,39H.94L0,39V86.28c.29,0,.58,0,.87,0H166.21c.29,0,.58,0,.87,0V39ZM28.6,77.87A15.41,15.41,0,0,1,9.24,65.63C9.1,64.76,9,63.87,8.91,63A15.69,15.69,0,0,1,22.52,47.62a16.93,16.93,0,0,1,6.05.46.88.88,0,0,1,.78.87c0,.53-.36.77-.82.92a14.68,14.68,0,0,0-4.94,2.61C19.28,56,16.28,64,21.25,70.88a13.54,13.54,0,0,0,7.11,5.18c.13,0,.3,0,.38.13.22.28.59.6.56.87A1.19,1.19,0,0,1,28.6,77.87Zm-2-11.25a2.25,2.25,0,0,1,2.24,2.25,2.22,2.22,0,0,1-2.2,2.28,2.27,2.27,0,1,1,0-4.53ZM24,63a2.27,2.27,0,0,1-2.28-2.22A2.32,2.32,0,0,1,24,58.46a2.38,2.38,0,0,1,2.28,2.27A2.36,2.36,0,0,1,24,63Zm6.9-5a2.23,2.23,0,0,1-2.21-2.28,2.19,2.19,0,0,1,2.26-2.22,2.24,2.24,0,0,1,2.23,2.27A2.27,2.27,0,0,1,30.89,58Zm4.3,13.19a2.26,2.26,0,1,1,2.28-2.23A2.3,2.3,0,0,1,35.19,71.15ZM37.87,63a2.27,2.27,0,0,1,0-4.54,2.31,2.31,0,0,1,2.25,2.28A2.27,2.27,0,0,1,37.87,63Z"/></g></svg>