<svg xmlns="http://www.w3.org/2000/svg" viewBox="0 0 167.1 167.1"><g id="Layer_1" data-name="Layer 1"><path d="M166,12.68c-.59-.31-1,.33-1.41.64q-6.81,5-13.58,10.09l-5.71,4.26.21.44c6.43,0,12.86,0,19.29,0,1.26,0,1.53-.71,1.52-1.79,0-4,0-8.09,0-12.13C166.27,13.68,166.55,13,166,12.68Z"/><path d="M.55,21.76c.59.33,1-.32,1.41-.62C5.41,18.6,8.85,16,12.3,13.47l9-6.68-.19-.45H1.6C.27,6.34.24,7.3.24,8.28c0,4,0,8,0,12C.26,20.75,0,21.45.55,21.76Z"/><path d="M56.8,28c.58,0,1.11.07,1.64.07,6.92,0,13.85,0,20.77,0a5.74,5.74,0,0,0,3.71-1.25C91.47,20.43,100.06,14,108.63,7.58c.4-.3,1-.47,1.05-1.26-7.51,0-15,0-22.45,0a5.48,5.48,0,0,0-3.54,1.2Q70.87,17.17,58,26.81C57.56,27.12,57,27.33,56.8,28Z"/><path d="M12.61,28c.54,0,1.08.07,1.62.07,7,0,14,0,21,0a5.52,5.52,0,0,0,3.54-1.22Q51.56,17.23,64.44,7.6c.41-.31,1-.48,1.09-1.16A3.33,3.33,0,0,0,65,6.33c-7.54,0-15.08,0-22.61,0a4.34,4.34,0,0,0-2.66,1.06Q31.9,13.2,24.07,19L12.45,27.64Z"/><path d="M101,28.11c7.57,0,15,0,22.51,0a5.52,5.52,0,0,0,3.54-1.2Q140,17.25,153,7.62c.38-.29.88-.46,1.07-1.3-7.63,0-15.1,0-22.57,0a5.71,5.71,0,0,0-3.71,1.26c-8.56,6.46-17.15,12.87-25.72,19.32C101.65,27.17,101.09,27.37,101,28.11Z"/><path d="M163.55,39.44H3c-2.72,0-2.73,0-2.73,2.77v115.5c0,2.86,0,2.86,2.83,2.86H163.65c2.63,0,2.64,0,2.64-2.68V42.21C166.29,39.44,166.28,39.44,163.55,39.44ZM81.08,113.92a11.28,11.28,0,0,1-4.34,9.18q-4.33,3.54-11.56,3.83v6.79H55.35v-6.79q-7.73-.08-12.1-4.56t-4.38-12.28H48.7A8.49,8.49,0,0,0,50.62,116a6.77,6.77,0,0,0,5.31,2.13h8a9,9,0,0,0,5.17-1.34,4.12,4.12,0,0,0,2-3.57v-2.46q0-3.54-5.21-4.41l-13.29-2.24Q46.1,103,42.74,99.93a10.14,10.14,0,0,1-3.36-7.84v-4a11.31,11.31,0,0,1,2-6.58A13.27,13.27,0,0,1,47,76.92a20.62,20.62,0,0,1,8.38-1.74V68.39h9.83v6.79a15.74,15.74,0,0,1,10.88,4.55,15.1,15.1,0,0,1,4.08,11H70.31a7,7,0,0,0-1.66-4.88A5.65,5.65,0,0,0,64.24,84H56.07a8.26,8.26,0,0,0-4.87,1.3,4,4,0,0,0-1.85,3.47v2c0,2.41,1.67,3.9,5,4.48l13.23,2.31q6.57,1.15,10,4.09a9.43,9.43,0,0,1,3.47,7.55Zm46.57,0a11.3,11.3,0,0,1-4.33,9.18q-4.33,3.54-11.57,3.83v6.79h-9.82v-6.79q-7.74-.08-12.11-4.56t-4.37-12.28h9.83A8.49,8.49,0,0,0,97.19,116a6.78,6.78,0,0,0,5.31,2.13h8a9,9,0,0,0,5.16-1.34,4.1,4.1,0,0,0,2-3.57v-2.46q0-3.54-5.2-4.41l-13.3-2.24q-6.51-1.08-9.87-4.16A10.14,10.14,0,0,1,86,92.09v-4a11.31,11.31,0,0,1,2-6.58,13.33,13.33,0,0,1,5.6-4.55,20.67,20.67,0,0,1,8.39-1.74V68.39h9.82v6.79a15.74,15.74,0,0,1,10.88,4.55,15.11,15.11,0,0,1,4.09,11h-9.83a7,7,0,0,0-1.67-4.88,5.63,5.63,0,0,0-4.4-1.84h-8.17a8.27,8.27,0,0,0-4.88,1.3,4,4,0,0,0-1.84,3.47v2q0,3.61,5,4.48l13.23,2.31q6.57,1.15,10,4.09a9.43,9.43,0,0,1,3.46,7.55Z"/></g></svg>