<svg xmlns="http://www.w3.org/2000/svg" viewBox="0 0 167.1 167.1"><g id="Layer_1" data-name="Layer 1"><path d="M165.56,12.87c-.59-.3-1,.34-1.4.65q-6.78,5-13.54,10.06l-5.69,4.24.2.44h19.24c1.25,0,1.52-.7,1.52-1.78,0-4,0-8.06,0-12.1C165.87,13.87,166.14,13.18,165.56,12.87Z"/><path d="M.61,21.93c.59.33,1-.31,1.4-.62,3.45-2.53,6.88-5.09,10.31-7.65,3-2.21,6-4.44,8.93-6.66l-.19-.45H1.65C.33,6.56.3,7.51.3,8.49c0,4,0,8,0,11.92C.32,20.93.05,21.62.61,21.93Z"/><path d="M56.71,28.19c.57,0,1.1.08,1.63.08,6.9,0,13.8,0,20.71,0a5.73,5.73,0,0,0,3.7-1.24q12.8-9.66,25.63-19.26c.4-.3,1-.46,1.05-1.25-7.49,0-14.93,0-22.38,0a5.44,5.44,0,0,0-3.53,1.19Q70.72,17.37,57.88,27C57.46,27.28,56.91,27.48,56.71,28.19Z"/><path d="M12.64,28.2c.53,0,1.07.07,1.61.07,7,0,13.93,0,20.9,0a5.45,5.45,0,0,0,3.52-1.21Q51.48,17.42,64.32,7.81c.41-.3,1-.48,1.08-1.15a3,3,0,0,0-.54-.11c-7.52,0-15,0-22.55,0a4.23,4.23,0,0,0-2.65,1.06Q31.88,13.4,24.07,19.18L12.48,27.8Z"/><path d="M100.76,28.27c7.54,0,15,0,22.44,0a5.51,5.51,0,0,0,3.54-1.19q12.92-9.68,25.87-19.27a1.94,1.94,0,0,0,1.07-1.29c-7.61,0-15.06,0-22.51,0a5.7,5.7,0,0,0-3.7,1.25Q114.68,17.43,101.82,27C101.43,27.33,100.86,27.53,100.76,28.27Z"/><path d="M163.16,39.56H3c-2.72,0-2.73,0-2.73,2.76V157.5c0,2.85,0,2.86,2.82,2.86H163.25c2.63,0,2.63,0,2.63-2.67V42.33C165.88,39.57,165.88,39.56,163.16,39.56Zm-59,74.27A11.3,11.3,0,0,1,99.81,123q-4.32,3.53-11.53,3.82v6.77h-9.8v-6.77q-7.71-.07-12.07-4.54T62.05,110h9.8a8.46,8.46,0,0,0,1.91,5.88,6.74,6.74,0,0,0,5.3,2.12h8a9.05,9.05,0,0,0,5.15-1.33,4.11,4.11,0,0,0,2-3.57v-2.45c0-2.35-1.73-3.82-5.19-4.39L75.74,104Q69.26,103,65.9,99.89a10.14,10.14,0,0,1-3.35-7.82V88a11.33,11.33,0,0,1,2-6.56,13.43,13.43,0,0,1,5.59-4.54,20.69,20.69,0,0,1,8.36-1.73V68.43h9.8V75.2a15.72,15.72,0,0,1,10.85,4.54,15.06,15.06,0,0,1,4.07,11H93.4a7,7,0,0,0-1.66-4.87A5.65,5.65,0,0,0,87.34,84H79.2a8.27,8.27,0,0,0-4.86,1.29,4,4,0,0,0-1.84,3.46v2c0,2.4,1.65,3.89,5,4.47l13.19,2.3q6.56,1.16,10,4.08a9.4,9.4,0,0,1,3.46,7.53Z"/></g></svg>