<svg xmlns="http://www.w3.org/2000/svg" viewBox="0 0 167.1 167.1"><g id="Layer_1" data-name="Layer 1"><path d="M166.73,12.91c-.58-.3-1,.34-1.4.64q-6.78,5-13.53,10.06l-5.69,4.24.2.44c6.41,0,12.82,0,19.23,0,1.25,0,1.52-.7,1.52-1.77,0-4,0-8.07,0-12.1C167,13.91,167.31,13.21,166.73,12.91Z"/><path d="M1.87,22c.59.33,1-.32,1.4-.62q5.18-3.81,10.31-7.65L22.5,7l-.19-.45H2.91c-1.32,0-1.35,1-1.35,1.93,0,4,0,7.94,0,11.91C1.58,21,1.31,21.66,1.87,22Z"/><path d="M57.94,28.22c.57,0,1.1.08,1.63.08,6.9,0,13.8,0,20.69,0A5.69,5.69,0,0,0,84,27.08c8.53-6.44,17.09-12.83,25.62-19.25.4-.3,1-.46,1-1.25-7.48,0-14.92,0-22.37,0a5.5,5.5,0,0,0-3.53,1.19C76.21,14.19,67.65,20.58,59.11,27,58.69,27.31,58.14,27.51,57.94,28.22Z"/><path d="M13.89,28.23c.54,0,1.07.07,1.61.07,7,0,13.93,0,20.89,0a5.45,5.45,0,0,0,3.52-1.21q12.8-9.66,25.64-19.26c.4-.3,1-.48,1.08-1.15a3,3,0,0,0-.55-.11c-7.51,0-15,0-22.53,0A4.23,4.23,0,0,0,40.9,7.63q-7.78,5.8-15.59,11.59L13.73,27.83Z"/><path d="M102,28.3c7.53,0,15,0,22.43,0a5.5,5.5,0,0,0,3.53-1.19q12.9-9.66,25.86-19.26c.37-.28.88-.46,1.07-1.29-7.61,0-15.06,0-22.5,0a5.7,5.7,0,0,0-3.7,1.25c-8.52,6.44-17.09,12.83-25.63,19.25C102.63,27.36,102.07,27.56,102,28.3Z"/><path d="M164.33,39.59H4.28c-2.71,0-2.72,0-2.72,2.76V157.46c0,2.85,0,2.85,2.82,2.86h160c2.63,0,2.63,0,2.63-2.66V42.35C167.05,39.59,167.05,39.59,164.33,39.59ZM59.47,113.82A11.29,11.29,0,0,1,55.15,123q-4.32,3.52-11.53,3.81v6.77H33.83v-6.77q-7.71-.07-12.07-4.54T17.4,110h9.8a8.48,8.48,0,0,0,1.91,5.87A6.73,6.73,0,0,0,34.4,118h8a9.05,9.05,0,0,0,5.15-1.33,4.1,4.1,0,0,0,2-3.56v-2.45q0-3.53-5.18-4.4L31.09,104q-6.48-1.08-9.83-4.14a10.14,10.14,0,0,1-3.35-7.82V88a11.28,11.28,0,0,1,2-6.55,13.25,13.25,0,0,1,5.58-4.54,20.53,20.53,0,0,1,8.36-1.73V68.44h9.79v6.77a15.68,15.68,0,0,1,10.85,4.54,15,15,0,0,1,4.07,11h-9.8a7,7,0,0,0-1.66-4.87A5.63,5.63,0,0,0,42.69,84H34.55a8.27,8.27,0,0,0-4.86,1.29,4,4,0,0,0-1.84,3.46v2c0,2.4,1.66,3.88,5,4.46L46,97.47q6.55,1.14,10,4.07a9.37,9.37,0,0,1,3.46,7.52Zm46.42,0a11.29,11.29,0,0,1-4.32,9.15q-4.32,3.52-11.53,3.81v6.77H80.25v-6.77q-7.71-.07-12.07-4.54T63.82,110h9.8a8.43,8.43,0,0,0,1.91,5.87A6.72,6.72,0,0,0,80.82,118h8A9.05,9.05,0,0,0,94,116.66a4.1,4.1,0,0,0,2-3.56v-2.45q0-3.53-5.19-4.4L77.51,104q-6.48-1.08-9.83-4.14a10.1,10.1,0,0,1-3.35-7.82V88a11.28,11.28,0,0,1,2-6.55,13.25,13.25,0,0,1,5.58-4.54,20.53,20.53,0,0,1,8.36-1.73V68.44H90v6.77a15.63,15.63,0,0,1,10.84,4.54q4.08,4.17,4.07,11H95.16a7,7,0,0,0-1.66-4.87A5.65,5.65,0,0,0,89.11,84H81a8.33,8.33,0,0,0-4.87,1.29,4,4,0,0,0-1.83,3.46v2c0,2.4,1.65,3.88,5,4.46l13.18,2.31q6.56,1.14,10,4.07a9.37,9.37,0,0,1,3.46,7.52Zm45.32,0a11.29,11.29,0,0,1-4.32,9.15q-4.32,3.52-11.53,3.81v6.77h-9.79v-6.77q-7.71-.07-12.07-4.54T109.14,110h9.8a8.43,8.43,0,0,0,1.91,5.87,6.72,6.72,0,0,0,5.29,2.12h8a9.05,9.05,0,0,0,5.15-1.33,4.1,4.1,0,0,0,2-3.56v-2.45q0-3.53-5.19-4.4L122.83,104q-6.48-1.08-9.83-4.14a10.1,10.1,0,0,1-3.35-7.82V88a11.28,11.28,0,0,1,2-6.55,13.25,13.25,0,0,1,5.58-4.54,20.53,20.53,0,0,1,8.36-1.73V68.44h9.79v6.77a15.63,15.63,0,0,1,10.84,4.54q4.08,4.17,4.07,11h-9.79a7,7,0,0,0-1.66-4.87A5.65,5.65,0,0,0,134.43,84h-8.14a8.33,8.33,0,0,0-4.87,1.29,4,4,0,0,0-1.83,3.46v2c0,2.4,1.65,3.88,5,4.46l13.18,2.31q6.56,1.14,10,4.07a9.37,9.37,0,0,1,3.46,7.52Z"/></g></svg>