<?xml version="1.0" encoding="utf-8"?>
<!-- Generator: Adobe Illustrator 25.2.3, SVG Export Plug-In . SVG Version: 6.00 Build 0)  -->
<svg version="1.1" id="Layer_1" xmlns="http://www.w3.org/2000/svg" xmlns:xlink="http://www.w3.org/1999/xlink" x="0px" y="0px"
	 viewBox="0 0 167.1 167.1" style="enable-background:new 0 0 167.1 167.1;" xml:space="preserve">
<g id="Layer_1_1_">
	<g id="Ipfbs2.tif">
		<path d="M56.3,148.8c-2-0.8-3.8-2.1-5.3-3.7c-15.5-15.5-31-31-46.5-46.5c-4.5-4.5-5.4-10.9-2.2-16.1c0.6-0.9,1.2-1.8,2-2.5
			c1.8-1.8,3.6-3.6,5.4-5.4c5.9-5.9,13.5-5.9,19.5,0c7.9,7.9,15.9,15.8,23.8,23.8c1.5,1.5,3.1,3,4.6,4.6c0.7,0.7,1.2,0.8,1.9,0
			c0.4-0.4,0.7-0.8,1.2-1.2c26-26,52-52,78-78c2.3-2.5,5.4-4.1,8.8-4.6c3.7-0.4,7.5,0.9,10.1,3.5c2.2,2.1,4.4,4.4,6.6,6.6
			c1.6,1.8,2.8,3.9,3.4,6.2v5.2c-0.9,3-2.6,5.8-4.9,7.9c-32.2,32.1-64.4,64.3-96.6,96.6c-1.5,1.6-3.3,2.9-5.3,3.6L56.3,148.8z"/>
	</g>
</g>
</svg>
