<svg xmlns="http://www.w3.org/2000/svg" viewBox="0 0 167.1 167.1"><g id="Layer_1" data-name="Layer 1"><path d="M150.91,49.47c-3.75-22.21-25.38-44.28-47.52-48.4A60,60,0,0,0,32,59.91V71a3.79,3.79,0,0,1-1.15,2.72l-18.44,18a5,5,0,0,0,1.29,8l14.15,6.9A7.38,7.38,0,0,1,32,113.24v27.65a3.79,3.79,0,0,0,3.79,3.79H65.15a3.79,3.79,0,0,1,3.79,3.79v17.78h70.87V95.86A60,60,0,0,0,150.91,49.47Zm-22.5,17.85A4.72,4.72,0,0,1,123.64,63c-.34-5.79-1.49-11.33-4.57-16.32-5.76-9.31-14-14.8-25-15.69-11.84-1-21.54,3.4-28.61,12.9-10.2,13.7-1.79,33.59,15.11,36a22,22,0,0,0,20.79-7.61c7-8,3.36-20.07-6.78-22.56A13.11,13.11,0,0,0,81,54a4.48,4.48,0,0,0,0,6.49c1.83,1.73,4.46,1.58,6.46-.45a5,5,0,0,1,5.17-1.59,4.73,4.73,0,0,1,2.21,7.72c-3.83,4.45-8.72,6.15-14.42,4.64s-9-5.3-10.21-11a13,13,0,0,1,2.94-11.41C79.56,40.78,87.77,38,97.27,40.5s15.2,8.88,16.94,18.47-2,17.41-9.42,23.38c-9.66,7.76-20.59,9.74-32.19,5.34C60.84,83.23,53.76,74.42,51.85,62,50,50,54.36,40,63.21,32A40.81,40.81,0,0,1,91.49,21.17a41.69,41.69,0,0,1,41.36,36.91,29.68,29.68,0,0,1,.24,4.61A4.79,4.79,0,0,1,128.41,67.32Z"/></g></svg>