<svg xmlns="http://www.w3.org/2000/svg" viewBox="0 0 167.1 167.1"><g id="Layer_1" data-name="Layer 1"><path d="M63.08,99,51.16,92.68,44,88.92,31.3,82.22,19.39,75.94v43.68L31.3,126l8,3.87,11.91,5.8,11.92,5.8A62.57,62.57,0,0,0,107.36,138l39.12-18.41V75.94L79,107.34Z"/><path d="M166.34,54.89,79,23.11-.47,54.89,79,94.6ZM95.6,61.76l-7.32-1.23a10.49,10.49,0,0,1-5.44-2.29A5.61,5.61,0,0,1,81,53.92V51.69a6.24,6.24,0,0,1,1.1-3.62,7.34,7.34,0,0,1,3.08-2.5,11.46,11.46,0,0,1,4.62-1V40.87H95.2v3.74a8.66,8.66,0,0,1,6,2.51,8.29,8.29,0,0,1,2.25,6.05H98a3.87,3.87,0,0,0-.92-2.69,3.1,3.1,0,0,0-2.43-1H90.19a4.56,4.56,0,0,0-2.69.71,2.23,2.23,0,0,0-1,1.91v1.08c0,1.32.92,2.15,2.75,2.46l7.28,1.28A11.45,11.45,0,0,1,102,59.16,5.16,5.16,0,0,1,104,63.32v2.62A6.23,6.23,0,0,1,101.57,71a10.49,10.49,0,0,1-6.37,2.11v3.74H89.79V73.11a9.06,9.06,0,0,1-6.67-2.51,9.31,9.31,0,0,1-2.41-6.77h5.42a4.72,4.72,0,0,0,1.05,3.25,3.74,3.74,0,0,0,2.93,1.17h4.41a5,5,0,0,0,2.85-.74,2.25,2.25,0,0,0,1.09-2V64.19C98.46,62.89,97.51,62.08,95.6,61.76ZM77.89,65.94A6.24,6.24,0,0,1,75.5,71a10.46,10.46,0,0,1-6.37,2.11v3.74H63.72V73.11a9.06,9.06,0,0,1-6.67-2.51,9.3,9.3,0,0,1-2.4-6.77h5.41a4.72,4.72,0,0,0,1,3.25A3.75,3.75,0,0,0,64,68.25h4.42a4.93,4.93,0,0,0,2.84-.74,2.26,2.26,0,0,0,1.1-2V64.19c0-1.3-1-2.11-2.87-2.43l-7.32-1.23a10.42,10.42,0,0,1-5.43-2.29,5.58,5.58,0,0,1-1.85-4.32V51.69A6.23,6.23,0,0,1,56,48.07a7.4,7.4,0,0,1,3.08-2.5,11.46,11.46,0,0,1,4.62-1V40.87h5.41v3.74a8.64,8.64,0,0,1,6,2.51,8.29,8.29,0,0,1,2.25,6.05H72A3.87,3.87,0,0,0,71,50.48a3.09,3.09,0,0,0-2.42-1h-4.5a4.56,4.56,0,0,0-2.69.71,2.25,2.25,0,0,0-1,1.91v1.08c0,1.32.91,2.15,2.74,2.46l7.29,1.28A11.54,11.54,0,0,1,76,59.16a5.19,5.19,0,0,1,1.91,4.16Z"/></g></svg>