<svg xmlns="http://www.w3.org/2000/svg" viewBox="0 0 167.1 167.1"><g id="Layer_1" data-name="Layer 1"><path d="M165.59,75.19c-.08-.74-.14-1.49-.21-2.24-.23-2.64-.47-5.37-1-8.1a76.49,76.49,0,0,0-21.69-41.4A75.82,75.82,0,0,0,99.16,2l-2.72-.38-1.09-.15-12.77,0-.44,0c-.81.12-1.62.22-2.43.33-1.79.24-3.64.49-5.48.86C53.29,6.79,36.64,17.83,24.72,35.45A75.14,75.14,0,0,0,11.8,81.65,76.21,76.21,0,0,0,22.19,117a1.73,1.73,0,0,1,.12.25.69.69,0,0,1-.06.13c-5.53,10.85-11.1,21.9-16.49,32.59l-3.08,6.1a12.52,12.52,0,0,0-1,2.28A5.73,5.73,0,0,0,3,163.9a5.65,5.65,0,0,0,4.16,1.79,6,6,0,0,0,1.26-.13,10.55,10.55,0,0,0,2.33-.87l3-1.45Q32.39,154.38,51,145.46l.14-.06.1,0c16.48,9,34,11.81,52,8.29a75.55,75.55,0,0,0,44.69-26.48,76.17,76.17,0,0,0,16.3-34.65c.53-2.75.81-5.51,1.07-8.17.1-1,.2-2,.32-3.06l0-5.9ZM141.7,116.36a7.37,7.37,0,0,0-2.53-2.41A73.22,73.22,0,0,0,125,107.33a106.37,106.37,0,0,0,3.54-23.27c5.3,0,10.68,0,15.89,0h3.48c3.08,0,5-1.07,6.07-2.5a64.58,64.58,0,0,1-8.13,28.2A65.86,65.86,0,0,1,141.7,116.36ZM35.52,40a6.7,6.7,0,0,0,.81,1.07,11.64,11.64,0,0,0,2.51,1.83,67.82,67.82,0,0,0,13.44,6.16,109.5,109.5,0,0,0-3.56,23.34c-5.52,0-11,0-16.55,0h-3.1a9.64,9.64,0,0,0-2.39.22,6,6,0,0,0-3.3,2.13C24.2,61.56,28.26,49.94,35.52,40ZM151.81,61.45a69.87,69.87,0,0,1,2.11,13.35,4.82,4.82,0,0,0-.41-.51,7.66,7.66,0,0,0-5.6-1.9H128.53A110.73,110.73,0,0,0,125,49.08a65.9,65.9,0,0,0,10.31-4.45,45.69,45.69,0,0,0,4.82-2.85A5.49,5.49,0,0,0,141.79,40,63.29,63.29,0,0,1,151.81,61.45ZM82.89,101.74a101.53,101.53,0,0,0-19.5,2.51,108.46,108.46,0,0,1-3-20.18c2.61,0,5.23,0,7.77,0h7c2.55,0,5.18,0,7.79,0C82.83,89.77,82.83,95.7,82.89,101.74Zm0-29.34c-2.66,0-5.32,0-8,0h-7c-2.48,0-5,0-7.56,0a104.22,104.22,0,0,1,3-20.19,113.84,113.84,0,0,0,15.72,2.36c1.13.09,2.34.15,3.76.19C82.85,60.59,82.85,66.5,82.88,72.4ZM94.51,54.75a100.46,100.46,0,0,0,19.34-2.57,99,99,0,0,1,3,20.22c-2.58,0-5.17,0-7.69,0h-6.88c-2.56,0-5.19,0-7.81,0C94.55,67.1,94.55,61.43,94.51,54.75Zm0,29.32c2.61,0,5.24,0,7.8,0h6.9c2.51,0,5.09,0,7.67,0a100.45,100.45,0,0,1-3,20.16,110.48,110.48,0,0,0-15.43-2.29c-1.33-.1-2.65-.17-3.93-.19C94.55,96.28,94.55,90.5,94.52,84.07ZM134.4,31.93a21.22,21.22,0,0,0-2.09,1.1l-.1.06a67.69,67.69,0,0,1-10.75,5,56.24,56.24,0,0,0-9.82-16.62,50.62,50.62,0,0,0-5.28-5.39,5.76,5.76,0,0,0-8,8.23c.43.48.86.9,1.28,1.3L100,26a45.73,45.73,0,0,1,10.25,15.14,94.59,94.59,0,0,1-15.7,2V35q0-7.68,0-15.35a16.26,16.26,0,0,0-.24-3A5.89,5.89,0,0,0,92,12.91c14.88.66,28.33,6.17,40.13,16.47.9.79,1.77,1.61,2.62,2.43C134.62,31.86,134.51,31.88,134.4,31.93ZM82.9,17.27a14,14,0,0,0,0,1.45v6.63c0,5.81,0,11.8,0,17.72a100.33,100.33,0,0,1-15.85-2,47.13,47.13,0,0,1,5.89-10.25,61.5,61.5,0,0,1,6-6.51,5.59,5.59,0,0,0,1.52-5.9,5.72,5.72,0,0,0-4.53-4,6.46,6.46,0,0,0-5.55,2.06A57.07,57.07,0,0,0,55.81,38.05a64.33,64.33,0,0,1-10.23-4.67,26.76,26.76,0,0,0-3-1.54,73.26,73.26,0,0,1,5.61-5,62,62,0,0,1,31.32-13.4c1.91-.24,3.81-.4,5.68-.5A5.86,5.86,0,0,0,82.9,17.27ZM22,146.47l-1.86.88.22-.42c4.3-8.55,8.75-17.39,13.19-26.06a7.68,7.68,0,0,0-.34-8.12A62.91,62.91,0,0,1,23.3,81.56a5.9,5.9,0,0,0,3.23,2.19,11.09,11.09,0,0,0,3.13.33h5.06q7,0,14,0c0,1.5.19,3,.32,4.4l.08.82a107.15,107.15,0,0,0,3.18,18.07c-1.74.61-3.3,1.2-4.75,1.8a64.31,64.31,0,0,0-10.06,5.2A5.76,5.76,0,0,0,43,124.46a14.4,14.4,0,0,0,1.77-.95l.17-.1a63.66,63.66,0,0,1,10.89-5A56.63,56.63,0,0,0,67.27,136.8c1.33,1.43,2.48,2.57,3.62,3.58a6.51,6.51,0,0,0,2.69,1.4,65.07,65.07,0,0,1-18-7.23,8.3,8.3,0,0,0-8.43-.2C38.81,138.44,30.25,142.52,22,146.47Zm57.1-6.21c2.25-2.34,2.18-5.65-.17-8.23-.24-.27-.5-.51-.76-.75l-.09-.08a44.65,44.65,0,0,1-11-15.89,120.19,120.19,0,0,1,15.81-2c0,2.71,0,5.44,0,8.1v7.5c0,3.25,0,6.49,0,9.74a6,6,0,0,0,2.25,4.79,64.35,64.35,0,0,1-11-1.53A5.6,5.6,0,0,0,79.07,140.26Zm15.27-.9a19.43,19.43,0,0,0,.18-2.88q0-9.69,0-19.39v-3.77a122,122,0,0,1,15.71,2,46.5,46.5,0,0,1-6,10.39,65.7,65.7,0,0,1-5.57,6.12l-.32.32a5.72,5.72,0,0,0,5.5,9.64,64.68,64.68,0,0,1-8.37,1.4c-1.14.11-2.27.18-3.39.24A6.27,6.27,0,0,0,94.34,139.36ZM106,140.72a12.24,12.24,0,0,0,1-.87l.18-.18a56.71,56.71,0,0,0,14.28-21.3,68.74,68.74,0,0,1,11.75,5.52,7.58,7.58,0,0,0,1.52.71,66.22,66.22,0,0,1-19.54,13.34,61.63,61.63,0,0,1-11.18,3.8A6.6,6.6,0,0,0,106,140.72Z"/></g></svg>