<svg xmlns="http://www.w3.org/2000/svg" viewBox="0 0 167.1 167.1"><g id="Layer_1" data-name="Layer 1"><path d="M20.21,76.1,8,76.39,55.79,28a1.64,1.64,0,0,1,2.33,0L105.94,76.1H93.7L57,38.18Z"/><path d="M92,87.47h57.9a9.24,9.24,0,0,1,9.24,9.24v2.14a0,0,0,0,1,0,0H92a0,0,0,0,1,0,0V87.47A0,0,0,0,1,92,87.47Z"/><polyline points="58.89 29.58 58.89 0 55.08 0 55.08 29.58"/><rect x="58.89" y="4.03" width="20.96" height="16.14"/><path d="M85.07,106.43V80.73L56.49,51.94,27.91,80.73V167.1H155.55V106.43Zm10.81,33.83a5.75,5.75,0,0,1-2.2,4.67,9.66,9.66,0,0,1-5.88,1.94v3.45h-5v-3.45a8.28,8.28,0,0,1-6.15-2.31,8.57,8.57,0,0,1-2.22-6.25h5a4.31,4.31,0,0,0,1,3,3.45,3.45,0,0,0,2.7,1.08h4.08a4.63,4.63,0,0,0,2.62-.68,2.08,2.08,0,0,0,1-1.82v-1.25c0-1.19-.88-1.94-2.64-2.24l-6.76-1.13a9.64,9.64,0,0,1-5-2.12,5.15,5.15,0,0,1-1.71-4v-2.06a5.7,5.7,0,0,1,1-3.34,6.85,6.85,0,0,1,2.84-2.32,10.67,10.67,0,0,1,4.26-.88v-3.45h5v3.45a8.05,8.05,0,0,1,5.53,2.32,7.67,7.67,0,0,1,2.07,5.58h-5a3.54,3.54,0,0,0-.85-2.48,2.88,2.88,0,0,0-2.24-.94H83.17a4.16,4.16,0,0,0-2.48.67,2,2,0,0,0-.93,1.76v1c0,1.23.84,2,2.53,2.28L89,131.92A10.84,10.84,0,0,1,94.12,134a4.8,4.8,0,0,1,1.76,3.84Z"/></g></svg>