<svg xmlns="http://www.w3.org/2000/svg" viewBox="0 0 167.1 167.1"><g id="Layer_1" data-name="Layer 1"><path d="M167.1,55.43,79.57,23.6,0,55.43,79.57,95.22ZM110,60.3l-7.34-1.23a10.49,10.49,0,0,1-5.44-2.29,5.6,5.6,0,0,1-1.85-4.33V50.22a6.24,6.24,0,0,1,1.09-3.63,7.39,7.39,0,0,1,3.09-2.51,11.47,11.47,0,0,1,4.63-1V39.37h5.42v3.75a8.66,8.66,0,0,1,6,2.51,8.32,8.32,0,0,1,2.25,6.06h-5.42a3.88,3.88,0,0,0-.92-2.69A3.11,3.11,0,0,0,109,48h-4.5a4.54,4.54,0,0,0-2.69.72,2.24,2.24,0,0,0-1,1.92v1.07c0,1.33.92,2.16,2.75,2.47l7.3,1.28a11.78,11.78,0,0,1,5.54,2.25,5.23,5.23,0,0,1,1.91,4.17v2.63a6.24,6.24,0,0,1-2.39,5.06,10.46,10.46,0,0,1-6.38,2.12v3.74h-5.42V71.67a9,9,0,0,1-6.68-2.52,9.25,9.25,0,0,1-2.41-6.77h5.42a4.68,4.68,0,0,0,1.06,3.25,3.74,3.74,0,0,0,2.93,1.17h4.42a5,5,0,0,0,2.85-.74,2.26,2.26,0,0,0,1.1-2V62.74C112.83,61.43,111.87,60.62,110,60.3ZM66.1,64.49a6.21,6.21,0,0,1-2.39,5.06,10.43,10.43,0,0,1-6.38,2.12v3.74H51.91V71.67a9,9,0,0,1-6.68-2.52,9.25,9.25,0,0,1-2.41-6.77h5.42a4.73,4.73,0,0,0,1.06,3.25,3.74,3.74,0,0,0,2.93,1.17h4.43a5,5,0,0,0,2.85-.74,2.25,2.25,0,0,0,1.09-2V62.74c0-1.31-1-2.12-2.87-2.44L50.4,59.07A10.49,10.49,0,0,1,45,56.78a5.63,5.63,0,0,1-1.85-4.33V50.22a6.25,6.25,0,0,1,1.1-3.63,7.39,7.39,0,0,1,3.09-2.51,11.46,11.46,0,0,1,4.62-1V39.37h5.42v3.75a8.66,8.66,0,0,1,6,2.51,8.32,8.32,0,0,1,2.26,6.06H60.16A3.88,3.88,0,0,0,59.25,49a3.14,3.14,0,0,0-2.44-1h-4.5a4.56,4.56,0,0,0-2.69.72,2.24,2.24,0,0,0-1,1.92v1.07c0,1.33.92,2.16,2.75,2.47l7.3,1.28a11.74,11.74,0,0,1,5.54,2.25,5.2,5.2,0,0,1,1.91,4.17Zm5.25,4.66a9.25,9.25,0,0,1-2.42-6.77h5.43a4.72,4.72,0,0,0,1,3.25,3.75,3.75,0,0,0,2.93,1.17h4.43a5,5,0,0,0,2.85-.74,2.26,2.26,0,0,0,1.1-2V62.74c0-1.31-1-2.12-2.87-2.44l-7.34-1.23a10.45,10.45,0,0,1-5.44-2.29,5.61,5.61,0,0,1-1.86-4.33V50.22a6.25,6.25,0,0,1,1.1-3.63,7.39,7.39,0,0,1,3.09-2.51,11.46,11.46,0,0,1,4.62-1V39.37h5.43v3.75a8.7,8.7,0,0,1,6,2.51,8.32,8.32,0,0,1,2.25,6.06H86.28A3.88,3.88,0,0,0,85.36,49a3.11,3.11,0,0,0-2.43-1H78.42a4.58,4.58,0,0,0-2.69.72,2.23,2.23,0,0,0-1,1.92v1.07c0,1.33.91,2.16,2.75,2.47l7.29,1.28a11.69,11.69,0,0,1,5.54,2.25,5.21,5.21,0,0,1,1.92,4.17v2.63a6.24,6.24,0,0,1-2.39,5.06,10.48,10.48,0,0,1-6.38,2.12v3.74H78V71.67A9,9,0,0,1,71.35,69.15Z"/><path d="M63.66,98.39l-31.83-17v.21L19.89,75.33v43.76l11.94,6.37v-.29l14.3,7,5.59,2.72L63.66,141A62.68,62.68,0,0,0,108,137.53l39.19-18.44V75.33L79.57,106.78Z"/></g></svg>