<?xml version="1.0" encoding="utf-8"?>
<!-- Generator: Adobe Illustrator 25.2.3, SVG Export Plug-In . SVG Version: 6.00 Build 0)  -->
<svg version="1.1" id="Layer_1" xmlns="http://www.w3.org/2000/svg" xmlns:xlink="http://www.w3.org/1999/xlink" x="0px" y="0px"
	 viewBox="0 0 167.1 167.1" style="enable-background:new 0 0 167.1 167.1;" xml:space="preserve">
<style type="text/css">
	.st0{stroke:#FFFFFF;stroke-width:3;stroke-miterlimit:10;}
</style>
<g id="Layer_1_1_">
	<path class="st0" d="M141.9,167.1h8.4c2.1,0,4.2,0,6.4,0h2c2.9,0,5.4-1.8,6.5-4.5v-3.6c-1.6-3.4-4.3-4.3-7.9-4.3
		c-42.8,0.1-85.5,0.1-128.3,0c-4.1,0.2-8.1-1.1-11.2-3.7c-4.9-4.1-6.7-10.8-4.6-16.8c2.1-5.9,7.6-9.9,13.9-10
		c20.1-0.1,40.3-0.1,60.4,0c23.3,0,46.7,0,70,0c3.6,0,6.3-1.1,7.8-4.5v-3.2c-1.3-3.4-3.7-4.6-7.3-4.6C114.4,112,70.8,112,27.3,112
		c-13.5,0-25,9.9-27,23.3C-2,150.5,8.5,164.7,23.7,167c0.4,0.1,0.8,0.1,1.2,0.1L141.9,167.1z"/>
	<path class="st0" d="M29.6,127.9c-6.5,0.2-11.7,5.7-11.5,12.2c0.2,6.3,5.2,11.3,11.5,11.5h132.4v-23.7H29.6z"/>
	<path class="st0" d="M141,56.8c15.3,1.6,26.4,15.3,24.8,30.6c0,0.4-0.1,0.8-0.1,1.2c-2,13.4-13.6,23.3-27.1,23.4
		c-43.8,0-87.5,0-131.3,0c-3.6,0-6-1.2-7.3-4.6v-3.2c1.5-3.4,4.2-4.5,7.8-4.5c23.4,0.1,46.9,0,70.3,0c20.3,0,40.5,0,60.8,0
		c6.3-0.1,11.8-4.1,13.9-10.1c2.1-6,0.3-12.7-4.6-16.8c-3.2-2.5-7.2-3.8-11.3-3.7c-43,0-86,0-129,0.1c-3.6,0-6.3-0.9-7.9-4.3v-3.5
		c1-2.7,3.6-4.5,6.5-4.5h2c2.1,0.1,4.3,0,6.4,0h8.5L141,56.8z"/>
	<path class="st0" d="M136.2,96c6.6,0,11.9-5.3,11.9-11.9s-5.3-11.9-11.9-11.9H3.1V96H136.2z"/>
</g>
</svg>
