<?xml version="1.0" encoding="utf-8"?>
<!-- Generator: Adobe Illustrator 25.2.3, SVG Export Plug-In . SVG Version: 6.00 Build 0)  -->
<svg version="1.1" id="Layer_1" xmlns="http://www.w3.org/2000/svg" xmlns:xlink="http://www.w3.org/1999/xlink" x="0px" y="0px"
	 viewBox="0 0 167.1 167.1" style="enable-background:new 0 0 167.1 167.1;" xml:space="preserve">
<style type="text/css">
	.st0{stroke:#FFFFFF;stroke-width:3;stroke-miterlimit:10;}
</style>
<g id="Layer_1_1_">
	<path class="st0" d="M143.5,167.2h8.5c2.2,0,4.3-0.1,6.5,0h2c2.9,0,5.5-1.8,6.6-4.6V159c-1.6-3.4-4.4-4.4-8-4.4
		c-43.4,0.1-86.8,0.1-130.2,0.1c-4.1,0.2-8.1-1.2-11.3-3.7c-4.9-4.2-6.8-11-4.6-17.1c2.1-6,7.7-10.1,14-10.2c20.4-0.1,40.9,0,61.3,0
		c23.7,0,47.3,0,71,0c3.6,0,6.4-1.2,7.9-4.6v-3.3c-1.3-3.4-3.8-4.7-7.4-4.7c-44.2,0.1-88.3,0.1-132.5,0
		c-13.7,0.1-25.3,10.1-27.4,23.7c-2.3,15.4,8.3,29.8,23.8,32.1c0.4,0.1,0.8,0.1,1.2,0.2L143.5,167.2z"/>
	<path d="M29.6,127.4c-6.6,0-12,5.4-12,12c0,6.6,5.4,12,12,12H164v-24H29.6z"/>
</g>
</svg>
