<svg width="35" height="12" viewBox="0 0 35 12" fill="none" xmlns="http://www.w3.org/2000/svg">
<path d="M7.36471 11.8979H0.0502058V11.6493H0.513889C0.723975 11.6181 0.927847 11.5894 1.12799 11.5621C1.30729 11.5462 1.47506 11.463 1.60037 11.3278C1.71474 11.1977 1.78808 10.9634 1.81792 10.6289L1.84775 9.90657V2.46843L1.81916 1.74609C1.78933 1.4116 1.7135 1.17603 1.59416 1.03937C1.46159 0.897295 1.28563 0.808404 1.09691 0.788179C0.90363 0.759412 0.709005 0.741598 0.513889 0.734817C0.338609 0.734817 0.181976 0.721802 0.0415039 0.71139V0.460198L7.03528 0.44458C8.66377 0.44458 9.74528 0.632865 10.2798 1.00944C10.8144 1.38601 11.1873 1.79121 11.3986 2.22505C11.6087 2.66074 11.7165 3.14262 11.7131 3.63068C11.7149 4.08911 11.6443 4.54469 11.5043 4.97905C11.3784 5.38509 11.1555 5.75069 10.8566 6.04108C10.5462 6.33049 10.1774 6.54272 9.7776 6.6619C9.23518 6.81186 8.67513 6.88022 8.11431 6.86494C7.46374 6.86494 6.93915 6.86754 6.54052 6.87275C6.1419 6.87795 5.80708 6.88576 5.53608 6.89617V9.90657L5.56592 10.6289C5.59575 10.963 5.66827 11.1959 5.78346 11.3278C5.91701 11.467 6.09299 11.5527 6.28071 11.5699C6.4942 11.601 6.70918 11.6197 6.92465 11.6259C7.13473 11.6259 7.28018 11.6389 7.35974 11.6493L7.36471 11.8979ZM7.96389 3.59554C7.96509 3.00704 7.88938 2.42113 7.73889 1.85412C7.58971 1.28926 7.36264 0.962582 7.05766 0.874079C6.76969 0.787091 6.4722 0.739408 6.17256 0.732214C5.88789 0.732214 5.67531 0.724405 5.53608 0.724405V6.59552L6.15018 6.56168C6.42996 6.54175 6.70819 6.50262 6.98307 6.44455C7.32783 6.37687 7.57645 6.06277 7.72894 5.50225C7.89246 4.88229 7.97156 4.24126 7.96389 3.59814V3.59554Z" fill="black"/>
<path d="M8.75098 11.8108C9.28117 11.312 9.83191 10.7944 10.4032 10.258C10.9745 9.72159 11.4044 9.29492 11.6929 8.97797C12.4595 8.23254 12.9676 7.58641 13.2172 7.03957C13.468 6.4918 13.5964 5.89343 13.593 5.28821C13.593 4.59265 13.4542 4.04174 13.1768 3.63547C12.8993 3.22919 12.4952 3.02629 11.9646 3.02674C11.5828 3.0254 11.2084 3.13531 10.885 3.34369C10.5519 3.55453 10.3851 3.78124 10.3846 4.02383C10.3846 4.42148 10.593 4.62031 11.0096 4.62031C11.1447 4.61432 11.2796 4.63594 11.4064 4.68393C11.5333 4.73192 11.6496 4.80532 11.7486 4.89985C11.8425 4.99406 11.9162 5.10744 11.9648 5.23267C12.0135 5.3579 12.036 5.49221 12.0309 5.62692C12.0352 5.8005 12.004 5.97308 11.9394 6.13356C11.8748 6.29404 11.7782 6.43887 11.6558 6.55871C11.5344 6.68064 11.3905 6.77642 11.2325 6.84043C11.0745 6.90444 10.9057 6.93538 10.7359 6.93143C10.283 6.93143 9.90746 6.79676 9.60923 6.52743C9.31099 6.25809 9.1621 5.90283 9.16254 5.46164C9.16227 4.9481 9.34279 4.45174 9.67086 4.06395C9.97695 3.67166 10.3688 3.35895 10.8148 3.15121C11.174 2.98139 11.5525 2.85824 11.9414 2.78461C12.2878 2.72923 12.638 2.70217 12.9885 2.70367C13.9654 2.70367 14.7967 2.92721 15.4824 3.37429C16.1682 3.82137 16.5112 4.46751 16.5117 5.31269C16.5167 5.82733 16.3476 6.32782 16.0332 6.72875C15.745 7.11617 15.3797 7.43614 14.9615 7.66734C14.5639 7.87819 13.9566 8.14729 13.1397 8.47467C12.3227 8.80204 11.8687 9.04032 11.7777 9.1895V9.23915C11.9792 9.22237 12.2112 9.2099 12.4736 9.20174C12.736 9.19358 13.0166 9.1895 13.3153 9.1895H15.228C15.6256 9.1895 15.902 9.13985 16.063 9.03987C16.2232 8.94211 16.3485 8.79401 16.4202 8.6175C16.4943 8.44332 16.5589 8.26508 16.6137 8.08359C16.6668 7.90947 16.7125 7.7646 16.7536 7.6483H16.9107L16.1359 11.8978H8.75098V11.8108Z" fill="white"/>
<path d="M21.8981 4.24262L17.0267 11.8978H15.3978V2.46161L15.3673 1.71172C15.3369 1.37843 15.2685 1.14679 15.1621 1.01681C15.0558 0.88683 14.8451 0.8008 14.5301 0.758723L13.708 0.696231V0.446266H20.2235V0.696231L19.9038 0.727477C19.5994 0.758723 19.399 0.834337 19.3028 0.954321C19.2066 1.0743 19.1431 1.31635 19.1122 1.68047L19.0818 2.43037V7.99211L21.8981 3.61771V2.46161L21.8676 1.71172C21.8506 1.47509 21.8046 1.24161 21.7306 1.01681C21.6697 0.855168 21.4515 0.753515 21.076 0.711854L20.7716 0.696231V0.446266H27.2719V0.696231L26.4498 0.7431C26.1352 0.774346 25.9247 0.849752 25.8184 0.969319C25.712 1.08889 25.6434 1.32594 25.6125 1.68047L25.5821 2.43037V8.03898C25.8054 7.67444 26.0185 7.33345 26.2215 7.01599C26.4244 6.69853 26.8761 6.00321 27.5763 4.93003C28.2766 3.85767 28.8602 3.00362 29.327 2.36788C29.7938 1.73213 30.281 1.22428 30.7884 0.844336C31.2959 0.464388 31.9352 0.274414 32.7065 0.274414C33.3561 0.274414 33.8966 0.469804 34.3281 0.860584C34.7596 1.25136 34.9752 1.759 34.9748 2.3835C34.9748 2.99842 34.7769 3.50876 34.3811 3.91454C33.9853 4.32032 33.488 4.52342 32.8892 4.52383C32.3412 4.52383 31.8743 4.35719 31.4887 4.0239C31.103 3.69061 30.9102 3.25317 30.9102 2.71158C30.9048 2.54988 30.9281 2.38851 30.979 2.2354C31.033 2.09803 31.0965 1.96479 31.169 1.8367C31.2634 1.67302 31.3757 1.52101 31.5039 1.38364C31.646 1.22741 31.717 1.09722 31.717 0.993066C31.717 0.899328 31.661 0.85246 31.5496 0.85246C31.4296 0.860429 31.3128 0.895193 31.2074 0.954321C31.0121 1.06172 30.8284 1.18991 30.6593 1.33677C30.3861 1.57155 30.1385 1.83596 29.9207 2.12541C29.6568 2.46411 29.3652 2.8626 29.0457 3.32087C28.7262 3.77914 28.1755 4.63048 27.3937 5.8749C26.6122 7.11973 25.8916 8.28123 25.232 9.35942C24.5723 10.4376 24.0547 11.2837 23.6792 11.8978H21.8981V4.24262Z" fill="black"/>
</svg>
