<svg xmlns="http://www.w3.org/2000/svg" viewBox="0 0 167.1 167.1"><g id="Layer_1" data-name="Layer 1"><path d="M24.28,26.65H55.71A33.12,33.12,0,0,1,83.26,41.4h0a33.12,33.12,0,0,1,27.55-14.75h31.43v88.47H110.81a33.09,33.09,0,0,0-27.55,14.75h0a33.37,33.37,0,0,0-27.7-14.76H24.28Z"/><path d="M14.74,45.16v76A3.76,3.76,0,0,0,18.5,125h41A10.55,10.55,0,0,1,67,128.09l7.46,7.66H92.18l7.95-7.76a10.55,10.55,0,0,1,7.4-3h41.58a3.75,3.75,0,0,0,3.75-3.76V50.07a3.77,3.77,0,0,1,3.76-3.76h6.72a3.76,3.76,0,0,1,3.76,3.76V136.7a3.75,3.75,0,0,1-3.76,3.75H3.76A3.75,3.75,0,0,1,0,136.7V45.16A3.76,3.76,0,0,1,3.76,41.4H11A3.76,3.76,0,0,1,14.74,45.16Z"/></g></svg>