<svg xmlns="http://www.w3.org/2000/svg" viewBox="0 0 167.1 167.1"><g id="Layer_1" data-name="Layer 1"><path d="M155.19,101.55A58.1,58.1,0,0,0,144.74,84a3.07,3.07,0,0,1-.26-.34,2.87,2.87,0,0,1,.27-.36c6.23-7.47,10.15-14.9,12-22.69,2.72-11.63-1.48-21.37-11.53-26.75a34.15,34.15,0,0,0-10.78-3.44,57,57,0,0,0-19.78.35,2.87,2.87,0,0,1-.5.06h0a2,2,0,0,1-.32-.62A67.41,67.41,0,0,0,104.09,13a33.93,33.93,0,0,0-8.5-7.94C87.6,0,79.53,0,71.61,5c-6.44,4.08-10.52,10.14-13.36,15a74.87,74.87,0,0,0-4.73,9.66c-.19.45-.39.95-.53,1.21-.27,0-.74-.1-1.21-.17l-.16,0a54.15,54.15,0,0,0-22.33.53C17.68,34,11.05,40.92,9.56,51.61V56.1c1.13,9.44,5.23,18.14,12.91,27.38a.92.92,0,0,1,.12.16,2.19,2.19,0,0,1-.23.3c-5.87,7-9.7,14-11.71,21.52a37.56,37.56,0,0,0-.78,3.94c-.1.57-.19,1.15-.3,1.72l0,4.37v.21A22.47,22.47,0,0,0,16.77,130c4.06,3.64,9.2,5.85,16.19,6.95a56.65,56.65,0,0,0,19.47-.37,2.61,2.61,0,0,1,.49-.06H53a2.26,2.26,0,0,1,.31.61,66.47,66.47,0,0,0,10.08,17.73c4.94,6,10.4,9.64,16.68,11l6.78,0,.16,0c7.09-1.55,13-5.77,18.46-13.31a67,67,0,0,0,8.24-15.27c.32-.83.32-.82,1.27-.66,9.65,1.7,18.13,1.27,25.93-1.32,9.07-3,14.52-8.93,16.22-17.62C158.08,112.74,157.47,107.63,155.19,101.55ZM125.53,42.69A31.82,31.82,0,0,1,136.27,44c6.9,2.16,9.52,6.6,8,13.58C142.81,64.24,139,69.84,135.84,74A132.57,132.57,0,0,0,122.3,62.35a1.66,1.66,0,0,1-.75-1.21,137.48,137.48,0,0,0-3.51-18,40,40,0,0,1,7.39-.49h.1Zm1.91,41L124,86.92l-1,1q0-1.35,0-2.7V79.43l1,.92C125.09,81.45,126.26,82.56,127.44,83.65ZM118,124.13a129.1,129.1,0,0,0,3.43-17.59,2.46,2.46,0,0,1,1.12-1.82A126.57,126.57,0,0,0,135.84,93.3c3.6,4.77,7.42,10.6,8.65,17.68.91,5.21-1.12,9.15-5.85,11.41-3.21,1.53-7.48,2.25-13.42,2.25H125A41,41,0,0,1,118,124.13Zm-50.43-4.19c-2.15.72-4.28,1.29-6,1.75l-.7-2.94-.75-3.1C62.5,117.15,65,118.56,67.61,119.94Zm32-72.53q2.93-.88,5.89-1.75l1.5,6C104.65,50.21,102.21,48.8,99.56,47.41Zm7.32,68.25-.75,3.15-.7,2.92-1.78-.55-4.12-1.27C102.19,118.51,104.62,117.11,106.88,115.66ZM65.75,133.77a124.9,124.9,0,0,0,16.87-5.9,2.07,2.07,0,0,1,1.83,0,139.11,139.11,0,0,0,16.84,5.91c-2.42,5.5-5.33,11.17-10,15.68-2.39,2.28-5.34,3.76-7.54,3.78a11.2,11.2,0,0,1-6.11-2.31,28.13,28.13,0,0,1-6.84-7.65,64.94,64.94,0,0,1-5-9.52Zm40.19-32.62A190.91,190.91,0,0,1,84.86,113a2.62,2.62,0,0,1-2.57,0,162.35,162.35,0,0,1-24-13.92,1.66,1.66,0,0,1-.87-1.43c-.15-3.33-.32-6.65-.48-10l-.2-4.09.69-14.11a1.55,1.55,0,0,1,.78-1.32A159.92,159.92,0,0,1,82.77,54a1.64,1.64,0,0,1,1.58,0,158.44,158.44,0,0,1,24.54,14.19,1.46,1.46,0,0,1,.72,1.23,235.11,235.11,0,0,1,.29,25.33C109.79,98.07,108.42,99.55,105.94,101.15ZM83.44,14.06a11.18,11.18,0,0,1,6,2.27,26.37,26.37,0,0,1,6.08,6.5,61.21,61.21,0,0,1,5.81,10.71,129.74,129.74,0,0,0-16.93,5.92,1.77,1.77,0,0,1-1.55.06,137.69,137.69,0,0,0-17.06-6c2.25-5.12,5.17-10.9,9.78-15.43C78.06,15.63,81,14.12,83.44,14.06ZM60.12,51.7c0-.16.08-.31.11-.46.23-1.05.49-2.1.76-3.14.21-.83.42-1.65.61-2.48l.76.23q2.58.76,5.15,1.56C64.84,48.83,62.42,50.24,60.12,51.7ZM44.12,85v2.84L43.19,87l-3.56-3.34,3.49-3.28,1-.93V85Zm4.74-41.26a142.41,142.41,0,0,0-3.35,17.31,1.61,1.61,0,0,1-.69,1.23A141.37,141.37,0,0,0,31.17,74c-3.91-3.81-8.76-14.78-8.76-20h0c0-4.15,1.87-7.1,5.77-9a24.42,24.42,0,0,1,9.45-2.27c1.43-.09,2.8-.14,4.11-.14a49.06,49.06,0,0,1,6.6.42l.67.1C49,43.3,48.93,43.5,48.86,43.77Zm-26,65.77c1.54-6.66,5.28-12.17,8.39-16.25a133,133,0,0,0,13.47,11.6,1.83,1.83,0,0,1,.82,1.33A141.44,141.44,0,0,0,49,124.13a40.16,40.16,0,0,1-7.5.49h-.08a31.63,31.63,0,0,1-10.54-1.28C23.92,121.22,21.21,116.58,22.83,109.54Z"/><path d="M83.55,67.85h0a15.81,15.81,0,0,0-.1,31.61h0A15.66,15.66,0,0,0,99.33,83.63,15.62,15.62,0,0,0,83.55,67.85Z"/></g></svg>